<svg xmlns="http://www.w3.org/2000/svg" viewBox="0 0 48 48"><title>03-saline bag</title><g id="_03-saline_bag" data-name="03-saline bag"><polygon points="14 37 14 41 12 41 10 41 10 37 14 37" style="fill:#8dc7ff"/><path d="M17,35a2.006,2.006,0,0,1-2,2H9a2.006,2.006,0,0,1-2-2V33H17Z" style="fill:#8dc7ff"/><path d="M15,36H9a2.006,2.006,0,0,1-2-2v1a2.006,2.006,0,0,0,2,2h6a2.006,2.006,0,0,0,2-2V34A2.006,2.006,0,0,1,15,36Z" style="fill:#5cafff"/><rect x="7" y="33" width="10" height="1" style="fill:#5cafff"/><path d="M45,21v2H41V21a2.006,2.006,0,0,1,2-2,2.015,2.015,0,0,1,2,2Z" style="fill:#dde4f7"/><path d="M44.41,19.59A1.955,1.955,0,0,0,43,19a2.006,2.006,0,0,0-2,2v1a2.006,2.006,0,0,1,2-2,2.015,2.015,0,0,1,2,2V21A1.955,1.955,0,0,0,44.41,19.59Z" style="fill:#e8eeff"/><path d="M45,23v4a2,2,0,0,1-4,0V23Z" style="fill:#4f7fff"/><rect x="39" y="22" width="8" height="2" style="fill:#dde4f7"/><path d="M44,19.279V7a7.008,7.008,0,0,0-7-7,7.008,7.008,0,0,0-7,7V43a3,3,0,0,1-3,3H16a3,3,0,0,1-3-3V41H11v2a5.006,5.006,0,0,0,5,5H27a5.006,5.006,0,0,0,5-5V7a5.009,5.009,0,0,1,5-5,5.006,5.006,0,0,1,5,5V19.279a1.932,1.932,0,0,1,2,0Z" style="fill:#8dc7ff"/><path d="M32.47,3.464A4.935,4.935,0,0,0,31,7V43a5.006,5.006,0,0,1-5,5h1a5.006,5.006,0,0,0,5-5V7a4.961,4.961,0,0,1,4.491-4.95A4.692,4.692,0,0,0,36,2,4.93,4.93,0,0,0,32.47,3.464Z" style="fill:#b3daff"/><path d="M37,0c-.172,0-.341.013-.51.025A7,7,0,0,1,43,7V19a1.959,1.959,0,0,1,1,.279V7A7.008,7.008,0,0,0,37,0Z" style="fill:#b3daff"/><path d="M15,46h1a3,3,0,0,1-3-3V41H12v2A3,3,0,0,0,15,46Z" style="fill:#b3daff"/><path d="M42,28.721V33h2V28.721a1.932,1.932,0,0,1-2,0Z" style="fill:#8dc7ff"/><path d="M43,29a1.975,1.975,0,0,1-1-.279v2a1.932,1.932,0,0,0,2,0v-2A1.975,1.975,0,0,1,43,29Z" style="fill:#5cafff"/><path d="M16,3V5H8V3a2.006,2.006,0,0,1,2-2h4A2.006,2.006,0,0,1,16,3Z" style="fill:#bccced"/><path d="M14,1H10A2.006,2.006,0,0,0,8,3V5a2.006,2.006,0,0,1,2-2h4a2.006,2.006,0,0,1,2,2V3A2.006,2.006,0,0,0,14,1Z" style="fill:#dde4f7"/><path d="M18,18v6a2.006,2.006,0,0,1-2,2H8a2.006,2.006,0,0,1-2-2V14a2.006,2.006,0,0,1,2-2h8a2.006,2.006,0,0,1,2,2Z" style="fill:#00c8c8"/><path d="M23,29a4,4,0,0,1-4,4H5a4,4,0,0,1-4-4V18H6v6a2.006,2.006,0,0,0,2,2h8a2.006,2.006,0,0,0,2-2V18h5Z" style="fill:#4f7fff"/><path d="M19,31H5a4,4,0,0,1-4-4v2a4,4,0,0,0,4,4H19a4,4,0,0,0,4-4V27A4,4,0,0,1,19,31Z" style="fill:#3161e3"/><path d="M23,9v9H18V14a2.006,2.006,0,0,0-2-2H8a2.006,2.006,0,0,0-2,2v4H1V9A4,4,0,0,1,5,5H19A4,4,0,0,1,23,9Z" style="fill:#dde4f7"/><rect x="7" y="13" width="10" height="12" rx="1" ry="1" style="fill:#64e1dc"/><rect x="8" y="4" width="8" height="1" style="fill:#a7bfe8"/><path d="M2,29V18H1v9a3.979,3.979,0,0,0,1.106,2.75A3,3,0,0,1,2,29Z" style="fill:#dde4f7"/><path d="M22,29a3,3,0,0,1-.106.75A3.979,3.979,0,0,0,23,27V18H22Z" style="fill:#dde4f7"/><path d="M19,32H5a2.993,2.993,0,0,1-2.894-2.25A3.979,3.979,0,0,1,1,27v2a4,4,0,0,0,4,4H19a4,4,0,0,0,4-4V27a3.979,3.979,0,0,1-1.106,2.75A2.993,2.993,0,0,1,19,32Z" style="fill:#bccced"/><path d="M22,9v9h1V11a3.979,3.979,0,0,0-1.106-2.75A3,3,0,0,1,22,9Z" style="fill:#e8eeff"/><path d="M2,9a3,3,0,0,1,.106-.75A3.979,3.979,0,0,0,1,11v7H2Z" style="fill:#e8eeff"/><path d="M19,5H5A4,4,0,0,0,1,9v2A3.979,3.979,0,0,1,2.106,8.25,2.993,2.993,0,0,1,5,6H19a2.993,2.993,0,0,1,2.894,2.25A3.979,3.979,0,0,1,23,11V9A4,4,0,0,0,19,5Z" style="fill:#edf2ff"/><polygon points="15 18 13 18 13 16 11 16 11 18 9 18 9 20 11 20 11 22 13 22 13 20 15 20 15 18" style="fill:#e8eeff"/><rect x="10" y="37" width="4" height="2" style="fill:#5cafff"/><rect x="11" y="41" width="2" height="2" style="fill:#5cafff"/><rect x="39" y="22" width="8" height="1" style="fill:#e8eeff"/><rect x="41" y="24" width="4" height="2" style="fill:#3161e3"/><path d="M18,24V14a2.006,2.006,0,0,0-2-2H8a2.006,2.006,0,0,0-2,2v1.628q.468.844,1,1.645V14a1,1,0,0,1,1-1h8a1,1,0,0,1,1,1V24a1,1,0,0,1-1,1h-.628q.747.414,1.528.775A2,2,0,0,0,18,24Z" style="fill:#64e1dc"/><path d="M18,24a2,2,0,0,1-1.1,1.775,23.8,23.8,0,0,0,5.1,1.7V18H18Z" style="fill:#759bff"/><path d="M6,14a2.006,2.006,0,0,1,2-2h8a2.006,2.006,0,0,1,2,2v4h4V9a3.049,3.049,0,0,0-3-3H5a2.959,2.959,0,0,0-1.852.647A23.844,23.844,0,0,0,6,15.628Z" style="fill:#e8eeff"/><path d="M9,18h2V16h2v2h2v2H13v2H11.125a24.039,24.039,0,0,0,4.247,3H16a1,1,0,0,0,1-1V14a1,1,0,0,0-1-1H8a1,1,0,0,0-1,1v3.273a24.082,24.082,0,0,0,2,2.6Z" style="fill:#96ebe6"/><path d="M9.109,20A24.1,24.1,0,0,0,11,21.891V20Z" style="fill:#96ebe6"/><path d="M22,27.476c.309.065.621.122.934.175A3.99,3.99,0,0,0,23,27V18H22Z" style="fill:#dde4f7"/><path d="M19,5H5a3.958,3.958,0,0,0-1.947.526c.024.376.054.75.1,1.121A2.959,2.959,0,0,1,5,6H19a3.049,3.049,0,0,1,3,3v9h1V9A4,4,0,0,0,19,5Z" style="fill:#f7f9ff"/><path d="M13,20h2V18H13V16H11v2H9v1.875c.037.041.072.084.109.125H11v1.891c.041.037.084.072.125.109H13Z" style="fill:#e8eeff"/><ellipse cx="19" cy="12" rx="0.825" ry="1.148" transform="translate(-2.919 16.957) rotate(-45.02)" style="fill:#f6fafd"/><ellipse cx="18.003" cy="8.987" rx="1.642" ry="2.286" transform="translate(-1.079 15.368) rotate(-45.02)" style="fill:#f6fafd"/><ellipse cx="15.746" cy="14.5" rx="0.413" ry="0.574" transform="translate(-5.641 15.388) rotate(-45.02)" style="fill:#f6fafd"/><ellipse cx="14.746" cy="2.5" rx="0.413" ry="0.574" transform="translate(2.554 11.163) rotate(-45.02)" style="fill:#f6fafd"/><rect x="8" y="33" width="6" height="1" rx="0.5" ry="0.5" style="fill:#40a1ff"/><rect x="15" y="33" width="2" height="1" rx="0.5" ry="0.5" style="fill:#40a1ff"/><rect x="10" y="37" width="4" height="1" style="fill:#40a1ff"/></g></svg>