<?xml version="1.0" encoding="utf-8"?>
<!-- Generator: Adobe Illustrator 16.0.0, SVG Export Plug-In . SVG Version: 6.00 Build 0)  -->
<!DOCTYPE svg PUBLIC "-//W3C//DTD SVG 1.1//EN" "http://www.w3.org/Graphics/SVG/1.1/DTD/svg11.dtd">
<svg version="1.1" id="icons" xmlns="http://www.w3.org/2000/svg" xmlns:xlink="http://www.w3.org/1999/xlink" x="0px" y="0px"
	 width="64px" height="64px" viewBox="0 0 64 64" enable-background="new 0 0 64 64" xml:space="preserve">
<g>
	<g>
		<path fill="#545C66" d="M35.5,23.005c-0.553,0-1-0.447-1-1V11.111c0-0.553,0.447-1,1-1s1,0.447,1,1v10.894
			C36.5,22.558,36.053,23.005,35.5,23.005z"/>
	</g>
	<g>
		<path fill="#545C66" d="M33.5,25.005c-0.553,0-1-0.447-1-1s0.447-1,1-1c0.552,0,1-0.448,1-1c0-0.553,0.447-1,1-1s1,0.447,1,1
			C36.5,23.659,35.154,25.005,33.5,25.005z"/>
	</g>
	<g>
		<path fill="#545C66" d="M11.498,23.005c-0.553,0-1-0.447-1-1V11.109c0-0.553,0.447-1,1-1s1,0.447,1,1v10.896
			C12.498,22.558,12.051,23.005,11.498,23.005z"/>
	</g>
	<g>
		<path fill="#545C66" d="M13.498,25.005c-1.654,0-3-1.346-3-3c0-0.553,0.447-1,1-1s1,0.447,1,1c0,0.552,0.448,1,1,1
			c0.553,0,1,0.447,1,1S14.051,25.005,13.498,25.005z"/>
	</g>
	<g>
		<path fill="#545C66" d="M33.5,25.005H13.498c-0.553,0-1-0.447-1-1s0.447-1,1-1H33.5c0.553,0,1,0.447,1,1
			S34.053,25.005,33.5,25.005z"/>
	</g>
	<path fill="#545C66" d="M35.5,11.11V22c0,1.11-0.89,2-2,2h-20c-1.11,0-2-0.89-2-2V11.11l0.1-0.28L23.5,15l11.9-4.17L35.5,11.11z"/>
	<polygon fill="#656D78" points="3.5,8 23.5,1 43.5,8 35.4,10.83 23.5,15 11.6,10.83 	"/>
	<g>
		<path fill="#656D78" d="M23.5,16c-0.111,0-0.224-0.019-0.33-0.056l-20-7C2.769,8.804,2.5,8.425,2.5,8s0.269-0.804,0.67-0.944l20-7
			c0.213-0.074,0.447-0.074,0.66,0l20.002,7c0.401,0.141,0.67,0.52,0.67,0.944s-0.269,0.804-0.67,0.944l-20.002,7
			C23.724,15.981,23.611,16,23.5,16z M6.527,8L23.5,13.94L40.475,8L23.5,2.06L6.527,8z"/>
	</g>
	<g>
		<path fill="#FFCE54" d="M23.5,9.004h-20c-0.553,0-1-0.447-1-1s0.447-1,1-1h20c0.553,0,1,0.447,1,1S24.053,9.004,23.5,9.004z"/>
	</g>
	<g>
		<path fill="#FFCE54" d="M3.5,15.006c-0.553,0-1-0.447-1-1V8.004c0-0.553,0.447-1,1-1s1,0.447,1,1v6.002
			C4.5,14.559,4.053,15.006,3.5,15.006z"/>
	</g>
	<g>
		<path fill="#5D9CEC" d="M23.502,38.987c-3.841,0-7.683-1.462-10.607-4.387c-0.391-0.391-0.391-1.023,0-1.414s1.023-0.391,1.414,0
			c5.069,5.068,13.315,5.07,18.383,0.002c0.391-0.391,1.023-0.391,1.414,0s0.391,1.023,0,1.414
			C31.183,37.525,27.343,38.987,23.502,38.987z"/>
	</g>
	<g>
		<path fill="#5D9CEC" d="M23.5,34.996L23.5,34.996c-2.939,0-5.702-1.145-7.779-3.222c-0.391-0.391-0.391-1.023,0-1.414
			s1.023-0.391,1.414,0c1.699,1.699,3.96,2.636,6.364,2.636H23.5c2.404,0,4.664-0.937,6.363-2.636c0.391-0.391,1.023-0.391,1.414,0
			s0.391,1.023,0,1.414C29.2,33.852,26.438,34.996,23.5,34.996z"/>
	</g>
	<g>
		<path fill="#5D9CEC" d="M23.499,30.993c-1.793,0-3.585-0.683-4.95-2.047c-0.391-0.391-0.391-1.023,0-1.414s1.023-0.391,1.414,0
			c1.949,1.949,5.123,1.949,7.072,0c0.391-0.391,1.023-0.391,1.414,0s0.391,1.023,0,1.414
			C27.084,30.311,25.292,30.993,23.499,30.993z"/>
	</g>
	<g>
		<path fill="#EAC6BB" d="M56.5,36.499c0-1.38,1.12-2.5,2.5-2.5s2.5,1.12,2.5,2.5v16.5l-2,5h-18l-4-7v-15c2.21,0,4,1.79,4,4v-17.5
			c0-1.38,1.12-2.5,2.5-2.5s2.5,1.12,2.5,2.5v12c0-1.38,1.12-2.5,2.5-2.5s2.5,1.12,2.5,2.5v1c0-1.38,1.12-2.5,2.5-2.5
			s2.5,1.12,2.5,2.5V36.499z"/>
		<path fill="#656D78" d="M61.5,58.999c0-0.55-0.45-1-1-1h-20c-0.55,0-1,0.45-1,1v3c0,0.55,0.45,1,1,1h20c0.55,0,1-0.45,1-1V58.999z
			"/>
		<g>
			<path fill="#FFCE54" d="M43.53,61.999c-0.553,0-1.005-0.447-1.005-1s0.442-1,0.994-1h0.011c0.552,0,1,0.447,1,1
				S44.082,61.999,43.53,61.999z"/>
		</g>
		<path fill="#D3B1A9" d="M46.5,34.499V38c0.553,0,1-0.447,1-1v-4.489C46.896,32.968,46.5,33.685,46.5,34.499z"/>
		<path fill="#D3B1A9" d="M41.5,39.999c0-1.008-0.385-1.918-1-2.621v5.621c0,0.553,0.447,1,1,1V39.999z"/>
		<path fill="#D3B1A9" d="M51.5,35.499V38c0.553,0,1-0.447,1-1v-3.489C51.896,33.968,51.5,34.685,51.5,35.499z"/>
		<path fill="#D3B1A9" d="M56.5,36.499v1.5c0.553,0,1-0.447,1-1v-2.488C56.896,34.968,56.5,35.685,56.5,36.499z"/>
		<rect x="39.5" y="61.999" fill="#656D78" width="22" height="2.001"/>
	</g>
</g>
</svg>
