<?xml version="1.0" encoding="utf-8"?>
<!-- Generator: Adobe Illustrator 22.0.1, SVG Export Plug-In . SVG Version: 6.00 Build 0)  -->
<svg version="1.1" id="Layer_1" xmlns="http://www.w3.org/2000/svg" xmlns:xlink="http://www.w3.org/1999/xlink" x="0px" y="0px"
	 viewBox="0 0 512 512" style="enable-background:new 0 0 512 512;" xml:space="preserve">
<style type="text/css">
	.st0{fill:#35216D;}
	.st1{fill:#EDF3FC;}
	.st2{fill:#330D84;}
	.st3{fill:#FFBE1B;}
	.st4{fill:#0061F3;}
	.st5{fill:#8C7BFD;}
	.st6{fill:#FFFFFF;}
	.st7{fill:#5932AE;}
	.st8{fill:#1C46C4;}
	.st9{fill:#6857E5;}
	.st10{fill:#5D8EF9;}
	.st11{fill:#8AC9F9;}
	.st12{fill:#FFE37B;}
	.st13{fill:#FFD000;}
	.st14{fill:#2EF39E;}
	.st15{fill:#330D84;stroke:#330D84;stroke-width:0.6306;stroke-linecap:round;stroke-linejoin:round;stroke-miterlimit:10;}
	.st16{fill:none;}
	.st17{fill:#FDB813;}
</style>
<g>
	<g>
		<g>
			<path class="st1" d="M256.004,40.928c-118.781,0-215.07,96.294-215.07,215.074c0,118.776,96.289,215.068,215.07,215.068
				c118.773,0,215.066-96.292,215.066-215.068C471.07,137.222,374.777,40.928,256.004,40.928z"/>
		</g>
	</g>
	<g>
		<g>
			<path class="st1" d="M256.004,1C115.394,1,1,115.394,1,256.002S115.394,511,256.004,511C396.611,511,511,396.61,511,256.002
				S396.611,1,256.004,1z M256.004,502.832c-136.105,0-246.831-110.728-246.831-246.83C9.173,119.897,119.899,9.17,256.004,9.17
				c136.102,0,246.824,110.728,246.824,246.832C502.828,392.104,392.105,502.832,256.004,502.832z"/>
		</g>
	</g>
	<g>
		<g>
			<path class="st3" d="M424.453,218.584c-16.358-4.095-29.124-16.866-33.222-33.22l-0.703-2.79l-0.7,2.79
				c-4.099,16.355-16.868,29.125-33.23,33.22l-2.783,0.703l2.783,0.7c16.362,4.096,29.131,16.869,33.23,33.225l0.7,2.79l0.703-2.79
				c4.099-16.356,16.864-29.129,33.222-33.225l2.794-0.7L424.453,218.584z"/>
		</g>
	</g>
	<g>
		<g>
			<path class="st3" d="M382.059,148.376c-7.402-1.853-13.178-7.631-15.033-15.032l-0.318-1.262l-0.317,1.262
				c-1.855,7.4-7.632,13.179-15.036,15.032l-1.26,0.318l1.26,0.317c7.404,1.853,13.181,7.633,15.036,15.034l0.317,1.262l0.318-1.262
				c1.855-7.401,7.631-13.181,15.033-15.034l1.264-0.317L382.059,148.376z"/>
		</g>
	</g>
	<g>
		<g>
			<path class="st2" d="M153.137,169.716c-13.969-3.5-24.87-14.408-28.369-28.369l-0.601-2.381l-0.599,2.381
				c-3.499,13.961-14.403,24.869-28.376,28.369l-2.377,0.598l2.377,0.598c13.973,3.5,24.877,14.405,28.376,28.374l0.599,2.383
				l0.601-2.383c3.499-13.969,14.4-24.874,28.369-28.374l2.386-0.598L153.137,169.716z"/>
		</g>
	</g>
	<g>
		<g>
			<path class="st10" d="M243.338,425.396c-10.19-2.553-18.142-10.508-20.695-20.696l-0.437-1.736l-0.437,1.736
				c-2.552,10.188-10.507,18.143-20.699,20.696l-1.734,0.436l1.734,0.435c10.192,2.555,18.147,10.508,20.699,20.698l0.437,1.738
				l0.437-1.738c2.553-10.19,10.505-18.143,20.695-20.698l1.741-0.435L243.338,425.396z"/>
		</g>
	</g>
	<g>
		<g>
			<path class="st10" d="M177.663,398.348c-8.266-2.07-14.716-8.523-16.787-16.785l-0.355-1.41l-0.354,1.41
				c-2.07,8.262-8.523,14.715-16.791,16.785l-1.406,0.355l1.406,0.352c8.268,2.073,14.721,8.525,16.791,16.791l0.354,1.41
				l0.355-1.41c2.071-8.266,8.521-14.718,16.787-16.791l1.412-0.352L177.663,398.348z"/>
		</g>
	</g>
	<g>
		<g>
			<path class="st2" d="M314.546,114.036H197.457c-10.547,0-19.097,8.551-19.097,19.092v240.738c0,10.55,8.55,19.098,19.097,19.098
				h117.089c10.546,0,19.094-8.548,19.094-19.098V133.128C333.64,122.587,325.092,114.036,314.546,114.036z"/>
		</g>
	</g>
	<g>
		<g>
			<path class="st7" d="M271.582,363.038h-31.164c-2.969,0-5.377,2.408-5.377,5.375v10.871c0,2.969,2.408,5.377,5.377,5.377h31.164
				c2.97,0,5.377-2.408,5.377-5.377v-10.871C276.959,365.446,274.552,363.038,271.582,363.038z"/>
		</g>
	</g>
	<g>
		<g>
			<path class="st7" d="M274.003,119.724h-36.005c-1.044,0-1.891,0.848-1.891,1.889v3.824c0,1.045,0.847,1.891,1.891,1.891h36.005
				c1.044,0,1.89-0.846,1.89-1.891v-3.824C275.893,120.571,275.047,119.724,274.003,119.724z"/>
		</g>
	</g>
	<g>
		<g>
			<path class="st11" d="M303.57,133.489h-95.137c-10.547,0-19.098,8.549-19.098,19.092v185.38c0,10.547,8.551,19.099,19.098,19.099
				h95.137c10.545,0,19.094-8.552,19.094-19.099v-185.38C322.664,142.038,314.115,133.489,303.57,133.489z"/>
		</g>
	</g>
	<g>
		<g>
			<path class="st2" d="M298.48,250.781h-6.062c-0.679,0-1.336-0.088-1.969-0.24v4.331c0,4.228-3.439,7.666-7.665,7.666h-6.982
				c1.019,1.049,1.648,2.479,1.648,4.057v1.887c0,1.578-0.63,3.007-1.648,4.056h6.982c9.741,0,17.665-7.925,17.665-17.666v-4.331
				C299.816,250.692,299.159,250.781,298.48,250.781z"/>
		</g>
	</g>
	<g>
		<g>
			<path class="st3" d="M219.582,220.317h-6.062c-4.677,0-8.469,3.792-8.469,8.469v13.525c0,4.678,3.792,8.469,8.469,8.469h6.062
				c4.677,0,8.469-3.792,8.469-8.469v-13.525C228.051,224.108,224.259,220.317,219.582,220.317z"/>
		</g>
	</g>
	<g>
		<g>
			<path class="st2" d="M261.035,167.034h-10.069c-21.876,0-39.673,17.797-39.673,39.673v13.916
				c0.711-0.193,1.455-0.306,2.228-0.306h6.062c0.586,0,1.158,0.06,1.711,0.173v-13.783c0-16.361,13.311-29.673,29.673-29.673
				h10.069c16.362,0,29.673,13.312,29.673,29.673v13.783c0.553-0.113,1.125-0.173,1.711-0.173h6.062
				c0.772,0,1.517,0.112,2.228,0.306v-13.916C300.707,184.831,282.91,167.034,261.035,167.034z"/>
		</g>
	</g>
	<g>
		<g>
			<path class="st3" d="M298.48,220.317h-6.062c-4.677,0-8.469,3.792-8.469,8.469v13.525c0,4.678,3.792,8.469,8.469,8.469h6.062
				c4.677,0,8.469-3.792,8.469-8.469v-13.525C306.949,224.108,303.157,220.317,298.48,220.317z"/>
		</g>
	</g>
	<g>
		<g>
			<path class="st3" d="M271.621,260.767h-6.994c-3.219,0-5.828,2.609-5.828,5.828v1.887c0,3.219,2.609,5.829,5.828,5.829h6.994
				c3.219,0,5.828-2.61,5.828-5.829v-1.887C277.449,263.376,274.84,260.767,271.621,260.767z"/>
		</g>
	</g>
	<g>
		<g>
			<path class="st2" d="M304.603,285.904h-97.205c-3.256,0-5.896,2.64-5.896,5.896v24.105c0,3.256,2.64,5.896,5.896,5.896h97.205
				c3.256,0,5.896-2.64,5.896-5.896V291.8C310.499,288.543,307.859,285.904,304.603,285.904z"/>
		</g>
	</g>
	<g>
		<path class="st6" d="M221.853,296.811c-1.149-0.65-2.538-0.979-4.126-0.979c-1.171,0-2.234,0.187-3.159,0.554
			c-0.933,0.371-1.737,0.916-2.391,1.619c-0.65,0.699-1.153,1.558-1.495,2.549c-0.337,0.981-0.508,2.072-0.508,3.244
			c0,1.144,0.164,2.223,0.487,3.207c0.327,0.999,0.819,1.867,1.462,2.582c0.647,0.717,1.462,1.279,2.422,1.67
			c0.954,0.39,2.044,0.587,3.243,0.587c1.204,0,2.291-0.191,3.231-0.57c0.949-0.383,1.761-0.944,2.413-1.667
			c0.649-0.72,1.143-1.581,1.467-2.56c0.32-0.967,0.482-2.053,0.482-3.229c0-1.594-0.297-3.007-0.884-4.198
			C223.9,298.41,223.011,297.465,221.853,296.811z M221.076,306.591c-0.347,0.729-0.813,1.272-1.388,1.615
			c-1.035,0.617-2.391,0.677-3.42,0.221c-0.448-0.198-0.852-0.503-1.201-0.906c-0.352-0.406-0.629-0.931-0.824-1.557
			c-0.199-0.64-0.3-1.369-0.3-2.167c0-0.791,0.101-1.512,0.3-2.142c0.195-0.617,0.463-1.129,0.795-1.52
			c0.328-0.385,0.725-0.683,1.179-0.885c0.457-0.202,0.964-0.306,1.508-0.306c0.765,0,1.45,0.187,2.036,0.554
			c0.582,0.364,1.038,0.914,1.355,1.635c0.327,0.742,0.493,1.639,0.493,2.663C221.61,304.904,221.431,305.845,221.076,306.591z"/>
		<path class="st6" d="M240.647,295.831c-0.527,0-0.955,0.187-1.272,0.556c-0.303,0.354-0.457,0.866-0.457,1.525v7.561l-5.076-7.681
			l-0.468-0.734c-0.163-0.255-0.328-0.468-0.49-0.633c-0.177-0.181-0.384-0.325-0.613-0.43c-0.542-0.25-1.371-0.227-2.001,0.182
			c-0.357,0.231-0.618,0.536-0.778,0.915c-0.125,0.321-0.187,0.738-0.187,1.273v11.396c0,0.646,0.16,1.157,0.474,1.517
			c0.327,0.375,0.763,0.564,1.295,0.564c0.517,0,0.947-0.187,1.28-0.554c0.325-0.356,0.489-0.87,0.489-1.527v-7.416l4.94,7.573
			c0.163,0.237,0.326,0.471,0.488,0.696c0.175,0.246,0.37,0.465,0.578,0.65c0.222,0.198,0.466,0.347,0.726,0.439
			c0.255,0.092,0.542,0.138,0.85,0.138c0.74,0,1.981-0.3,1.981-2.313v-11.618c0-0.659-0.156-1.173-0.464-1.527
			C241.622,296.017,241.186,295.831,240.647,295.831z"/>
		<path class="st6" d="M256.375,308.396h-5.697v-10.383c0-0.704-0.174-1.248-0.517-1.616c-0.35-0.376-0.809-0.565-1.363-0.565
			c-0.551,0-1.004,0.193-1.347,0.574c-0.333,0.371-0.503,0.911-0.503,1.607v11.376c0,0.743,0.18,1.302,0.535,1.659
			c0.356,0.36,0.917,0.543,1.668,0.543h7.225c0.581,0,1.04-0.145,1.362-0.43c0.337-0.297,0.508-0.687,0.508-1.157
			c0-0.464-0.171-0.854-0.509-1.159C257.409,308.547,256.951,308.396,256.375,308.396z"/>
		<path class="st6" d="M263.507,295.831c-0.544,0-0.995,0.192-1.34,0.572c-0.338,0.37-0.51,0.912-0.51,1.609v11.638
			c0,0.697,0.173,1.24,0.515,1.613c0.351,0.385,0.8,0.579,1.335,0.579c0.555,0,1.014-0.192,1.364-0.571
			c0.342-0.372,0.516-0.917,0.516-1.621v-11.638c0-0.705-0.174-1.249-0.517-1.616C264.52,296.021,264.061,295.831,263.507,295.831z"
			/>
		<path class="st6" d="M281.44,295.831c-0.527,0-0.955,0.187-1.272,0.556c-0.303,0.354-0.457,0.866-0.457,1.525v7.561l-5.076-7.681
			l-0.468-0.734c-0.163-0.255-0.328-0.468-0.49-0.633c-0.177-0.181-0.384-0.325-0.613-0.43c-0.543-0.25-1.371-0.227-2.001,0.182
			c-0.357,0.231-0.618,0.536-0.778,0.915c-0.125,0.321-0.187,0.738-0.187,1.273v11.396c0,0.646,0.16,1.157,0.474,1.517
			c0.327,0.375,0.763,0.564,1.295,0.564c0.517,0,0.947-0.187,1.28-0.554c0.325-0.356,0.489-0.87,0.489-1.527v-7.416l4.94,7.573
			c0.163,0.237,0.326,0.471,0.488,0.696c0.175,0.246,0.37,0.465,0.578,0.65c0.222,0.198,0.466,0.347,0.726,0.439
			c0.255,0.092,0.542,0.138,0.85,0.138c0.74,0,1.981-0.3,1.981-2.313v-11.618c0-0.659-0.156-1.173-0.464-1.527
			C282.415,296.017,281.979,295.831,281.44,295.831z"/>
		<path class="st6" d="M299.447,308.899c-0.308-0.28-0.749-0.423-1.312-0.423h-6.604v-3.466h5.838c0.56,0,0.991-0.141,1.282-0.419
			c0.297-0.282,0.447-0.648,0.447-1.088c0-0.441-0.154-0.806-0.458-1.083c-0.294-0.268-0.721-0.403-1.271-0.403h-5.838v-2.892h6.372
			c0.57,0,1.012-0.139,1.312-0.413c0.311-0.283,0.468-0.657,0.468-1.113c0-0.449-0.158-0.82-0.468-1.104
			c-0.3-0.274-0.742-0.413-1.312-0.413h-7.899c-0.482,0-0.873,0.071-1.197,0.219c-0.353,0.162-0.615,0.422-0.779,0.773
			c-0.152,0.324-0.227,0.72-0.227,1.209v11.104c0,0.743,0.18,1.302,0.535,1.659c0.355,0.36,0.917,0.543,1.668,0.543h8.131
			c0.563,0,1.004-0.143,1.312-0.424c0.317-0.291,0.478-0.669,0.478-1.123C299.925,309.576,299.764,309.191,299.447,308.899z"/>
	</g>
</g>
</svg>
